<mxfile host="app.diagrams.net" modified="2021-10-15T07:17:37.734Z" agent="5.0 (Windows NT 10.0; Win64; x64) AppleWebKit/537.36 (KHTML, like Gecko) Chrome/94.0.4606.81 Safari/537.36" etag="OgxgVdG7CMf2HnDYOPfW" version="15.5.2" type="github">
  <diagram id="wL8n7yCZ6T97UeFFoL8u" name="Page-1">
    <mxGraphModel dx="1209" dy="595" grid="1" gridSize="10" guides="1" tooltips="1" connect="1" arrows="1" fold="1" page="1" pageScale="1" pageWidth="827" pageHeight="1169" math="0" shadow="0">
      <root>
        <mxCell id="0" />
        <mxCell id="1" parent="0" />
        <mxCell id="oIxt3jIqIYGT_JcQhHJX-20" value="Connection establishment with three packets" style="text;html=1;strokeColor=none;fillColor=none;align=center;verticalAlign=middle;whiteSpace=wrap;rounded=0;fontStyle=1" vertex="1" parent="1">
          <mxGeometry x="240" y="360" width="310" height="30" as="geometry" />
        </mxCell>
        <mxCell id="QIWU0Ks1MfzyJJg9i_o5-3" value="" style="fontColor=#0066CC;verticalAlign=top;verticalLabelPosition=bottom;labelPosition=center;align=center;html=1;outlineConnect=0;fillColor=#CCCCCC;strokeColor=#6881B3;gradientColor=none;gradientDirection=north;strokeWidth=2;shape=mxgraph.networks.server;" parent="1" vertex="1">
          <mxGeometry x="590" y="403.13" width="60" height="87.5" as="geometry" />
        </mxCell>
        <mxCell id="QIWU0Ks1MfzyJJg9i_o5-4" value="" style="fontColor=#0066CC;verticalAlign=top;verticalLabelPosition=bottom;labelPosition=center;align=center;html=1;outlineConnect=0;fillColor=#CCCCCC;strokeColor=#6881B3;gradientColor=none;gradientDirection=north;strokeWidth=2;shape=mxgraph.networks.mobile;" parent="1" vertex="1">
          <mxGeometry x="160" y="420" width="40" height="73.75" as="geometry" />
        </mxCell>
        <mxCell id="QIWU0Ks1MfzyJJg9i_o5-5" value="Client" style="text;html=1;strokeColor=none;fillColor=none;align=center;verticalAlign=middle;whiteSpace=wrap;rounded=0;" parent="1" vertex="1">
          <mxGeometry x="150" y="507.5" width="60" height="30" as="geometry" />
        </mxCell>
        <mxCell id="QIWU0Ks1MfzyJJg9i_o5-6" value="server" style="text;html=1;strokeColor=none;fillColor=none;align=center;verticalAlign=middle;whiteSpace=wrap;rounded=0;" parent="1" vertex="1">
          <mxGeometry x="590" y="507.5" width="60" height="30" as="geometry" />
        </mxCell>
        <mxCell id="QIWU0Ks1MfzyJJg9i_o5-9" value="" style="rounded=0;whiteSpace=wrap;html=1;strokeColor=#82b366;strokeWidth=1;fillColor=#d5e8d4;" parent="1" vertex="1">
          <mxGeometry x="240" y="390" width="310" height="130" as="geometry" />
        </mxCell>
        <mxCell id="QIWU0Ks1MfzyJJg9i_o5-18" value="SYN: 1" style="rounded=0;whiteSpace=wrap;html=1;strokeColor=#7EA6E0;strokeWidth=2;" parent="1" vertex="1">
          <mxGeometry x="335" y="410" width="120" height="20" as="geometry" />
        </mxCell>
        <mxCell id="QIWU0Ks1MfzyJJg9i_o5-21" value="" style="endArrow=classic;html=1;rounded=0;edgeStyle=orthogonalEdgeStyle;strokeColor=#7EA6E0;strokeWidth=2;" parent="1" edge="1">
          <mxGeometry x="150" y="359" as="geometry">
            <mxPoint x="454.75" y="420" as="sourcePoint" />
            <mxPoint x="509.75" y="419.5" as="targetPoint" />
            <Array as="points">
              <mxPoint x="474.75" y="420" />
              <mxPoint x="474.75" y="420" />
            </Array>
          </mxGeometry>
        </mxCell>
        <mxCell id="QIWU0Ks1MfzyJJg9i_o5-32" value="" style="line;strokeWidth=2;html=1;labelBorderColor=#3399FF;strokeColor=#7EA6E0;" parent="1" vertex="1">
          <mxGeometry x="264" y="415" width="70" height="10" as="geometry" />
        </mxCell>
        <mxCell id="QIWU0Ks1MfzyJJg9i_o5-33" value="SYN: 1, ACK: 1" style="rounded=0;whiteSpace=wrap;html=1;strokeColor=#7EA6E0;strokeWidth=2;" parent="1" vertex="1">
          <mxGeometry x="335" y="446.88" width="120" height="20" as="geometry" />
        </mxCell>
        <mxCell id="QIWU0Ks1MfzyJJg9i_o5-34" value="" style="endArrow=none;html=1;rounded=0;edgeStyle=orthogonalEdgeStyle;strokeColor=#7EA6E0;strokeWidth=2;endFill=0;" parent="1" edge="1">
          <mxGeometry x="150" y="359" as="geometry">
            <mxPoint x="454.75" y="456.88" as="sourcePoint" />
            <mxPoint x="509.75" y="456.38" as="targetPoint" />
            <Array as="points">
              <mxPoint x="474.75" y="456.88" />
              <mxPoint x="474.75" y="456.88" />
            </Array>
          </mxGeometry>
        </mxCell>
        <mxCell id="QIWU0Ks1MfzyJJg9i_o5-40" value="" style="endArrow=none;html=1;rounded=0;edgeStyle=orthogonalEdgeStyle;strokeColor=#7EA6E0;strokeWidth=2;startArrow=classic;startFill=1;endFill=0;entryX=0;entryY=0.25;entryDx=0;entryDy=0;" parent="1" target="QIWU0Ks1MfzyJJg9i_o5-33" edge="1">
          <mxGeometry x="150" y="359" as="geometry">
            <mxPoint x="265" y="456.88" as="sourcePoint" />
            <mxPoint x="320" y="456.38" as="targetPoint" />
            <Array as="points">
              <mxPoint x="335" y="457" />
            </Array>
          </mxGeometry>
        </mxCell>
        <mxCell id="QIWU0Ks1MfzyJJg9i_o5-42" value="ACK: 1" style="rounded=0;whiteSpace=wrap;html=1;strokeColor=#7EA6E0;strokeWidth=2;" parent="1" vertex="1">
          <mxGeometry x="335" y="480" width="120" height="20" as="geometry" />
        </mxCell>
        <mxCell id="QIWU0Ks1MfzyJJg9i_o5-43" value="" style="endArrow=classic;html=1;rounded=0;edgeStyle=orthogonalEdgeStyle;strokeColor=#7EA6E0;strokeWidth=2;" parent="1" edge="1">
          <mxGeometry x="150" y="359" as="geometry">
            <mxPoint x="454.75" y="490" as="sourcePoint" />
            <mxPoint x="509.75" y="489.5" as="targetPoint" />
            <Array as="points">
              <mxPoint x="474.75" y="490" />
              <mxPoint x="474.75" y="490" />
            </Array>
          </mxGeometry>
        </mxCell>
        <mxCell id="QIWU0Ks1MfzyJJg9i_o5-44" value="" style="line;strokeWidth=2;html=1;labelBorderColor=#3399FF;strokeColor=#7EA6E0;" parent="1" vertex="1">
          <mxGeometry x="264" y="485" width="70" height="10" as="geometry" />
        </mxCell>
      </root>
    </mxGraphModel>
  </diagram>
</mxfile>
